#!OML:ASF F:\VICON\USERDATA\INSTALL\Justin_Nancy\Justin_Nancy.ASF
:FULLY-SPECIFIED
:DEGREES
111
root 12.3168 17.5023 -9.98562 -1.48154 0.787706 -3.48203
lowerback 7.46263 0.610906 2.21632
upperback 0.361775 1.11089 2.73697
thorax -3.82547 0.535575 1.47014
lowerneck -16.1207 -4.57592 -10.0773
upperneck 24.8586 -5.43907 6.48539
head 11.1897 -2.64575 3.27956
rclavicle 7.82715e-015 6.36111e-015
rhumerus -26.4028 -7.06664 -81.9919
rradius 32.7978
rwrist 4.71839
rhand -14.4951 12.0051
rfingers 7.12502
rthumb 11.6517 -17.6509
lclavicle 7.82715e-015 6.36111e-015
lhumerus -32.5771 12.3849 84.6412
lradius 24.4858
lwrist -9.2335
lhand -15.6048 26.8661
lfingers 7.12502
lthumb 10.5813 56.5798
rfemur -0.854514 3.04609 30.7026
rtibia 20.5268
rfoot -12.369 -7.43208
rtoes -0.131334
lfemur -28.2711 2.69108 -15.3527
ltibia 53.8229
lfoot -1.23184 6.62996
ltoes 24.3048
112
root 12.3274 17.4868 -9.8651 -1.31185 0.729051 -3.68461
lowerback 7.5441 0.644355 2.38258
upperback 0.250893 1.18001 2.80186
thorax -3.98536 0.566254 1.43584
lowerneck -16.5214 -4.34934 -9.71754
upperneck 24.6024 -5.12479 6.3404
head 11.1249 -2.47706 3.20407
rclavicle -3.77691e-015 2.34566e-014
rhumerus -26.1362 -6.41957 -82.0982
rradius 33.2631
rwrist 4.27006
rhand -14.5246 10.6893
rfingers 7.12502
rthumb 11.6233 -18.9683
lclavicle -3.77691e-015 2.34566e-014
lhumerus -32.4383 13.1292 84.3973
lradius 24.1139
lwrist -10.7602
lhand -14.3496 28.9442
lfingers 7.12502
lthumb 11.792 58.5922
rfemur -0.55968 3.19816 30.9485
rtibia 20.4317
rfoot -12.6388 -7.71268
rtoes 0.192371
lfemur -28.8178 2.29534 -14.982
ltibia 51.805
lfoot -9.30416 7.81819
ltoes -7.0063
113
root 12.3357 17.4758 -9.74283 -1.16937 0.603041 -3.83004
lowerback 7.47242 0.735832 2.46045
upperback 0.239339 1.3077 2.84777
thorax -3.95767 0.628723 1.42676
lowerneck -16.2553 -4.37731 -9.65839
upperneck 24.6133 -5.16014 6.16775
head 11.0738 -2.51284 3.12771
rclavicle -1.18525e-014 -3.49861e-014
rhumerus -25.8915 -5.85117 -82.1614
rradius 33.8462
rwrist 3.80885
rhand -14.2379 10.6821
rfingers 7.12502
rthumb 11.8997 -18.9597
lclavicle -1.18525e-014 -3.49861e-014
lhumerus -32.2479 14.0656 84.0896
lradius 23.6218
lwrist -12.1812
lhand -13.6372 30.1676
lfingers 7.12502
lthumb 12.4789 59.775
rfemur -0.198332 3.41148 31.1423
rtibia 20.2271
rfoot -12.8357 -7.89265
rtoes 0.619408
lfemur -29.1931 1.94088 -14.6237
ltibia 49.6742
lfoot -9.36496 8.15549
ltoes -5.79462
114
root 12.3485 17.4684 -9.61072 -1.00302 0.409531 -3.81972
lowerback 7.29244 0.849512 2.48075
upperback 0.249582 1.4509 2.81467
thorax -3.84566 0.699916 1.36812
lowerneck -16.6119 -4.12244 -9.27104
upperneck 24.6318 -4.80478 5.92482
head 11.0989 -2.33796 3.02312
rclavicle 5.61567e-015 2.70347e-014
rhumerus -25.6927 -5.36203 -82.2012
rradius 34.4209
rwrist 3.45128
rhand -13.9296 11.3191
rfingers 7.12502
rthumb 12.197 -18.3053
lclavicle 5.61567e-015 2.70347e-014
lhumerus -32.4433 14.2748 83.9353
lradius 23.5769
lwrist -11.9683
lhand -14.3514 28.2253
lfingers 7.12502
lthumb 11.7903 57.8735
rfemur 0.291057 3.51298 31.1207
rtibia 19.8778
rfoot -13.0014 -7.84084
rtoes 0.912508
lfemur -29.4267 1.71674 -14.5053
ltibia 47.4874
lfoot -9.44086 8.42896
ltoes -4.21478
115
root 12.3628 17.4691 -9.47475 -0.92308 0.444048 -3.81215
lowerback 7.3372 0.923008 2.60382
upperback 0.287046 1.55584 2.72421
thorax -3.8267 0.749148 1.19383
lowerneck -17.0567 -4.25577 -9.23918
upperneck 24.6305 -5.00045 6.06578
head 11.206 -2.39886 3.03581
rclavicle 2.19906e-014 -2.70347e-014
rhumerus -25.3268 -5.46385 -82.1928
rradius 34.7089
rwrist 3.50928
rhand -13.8641 11.5588
rfingers 7.12502
rthumb 12.2602 -18.0618
lclavicle 2.19906e-014 -2.70347e-014
lhumerus -32.6625 13.5144 84.1383
lradius 24.0685
lwrist -11.1231
lhand -14.3153 26.3028
lfingers 7.12502
lthumb 11.8251 55.9489
rfemur 0.960399 3.52728 31.1079
rtibia 19.4192
rfoot -13.2154 -7.981
rtoes 0.858274
lfemur -29.5736 1.25103 -14.3843
ltibia 45.2886
lfoot -9.6467 8.73302
ltoes 1.87224
116
root 12.3794 17.4576 -9.34197 -0.830442 0.548761 -3.99865
lowerback 7.38473 0.920881 2.8672
upperback 0.28437 1.57759 2.72896
thorax -3.84944 0.754987 1.04815
lowerneck -17.3725 -4.37629 -9.29734
upperneck 24.6938 -5.13494 6.09326
head 11.3073 -2.45677 3.03279
rclavicle 9.64106e-015 5.1684e-015
rhumerus -24.9754 -5.2708 -82.2363
rradius 34.9063
rwrist 3.54531
rhand -14.2054 11.9936
rfingers 7.12502
rthumb 11.931 -17.6464
lclavicle 9.64106e-015 5.1684e-015
lhumerus -32.6973 13.4634 84.1547
lradius 24.1306
lwrist -11.0422
lhand -14.2153 25.4324
lfingers 7.12502
lthumb 11.9215 55.073
rfemur 1.71565 3.4437 31.3044
rtibia 18.7494
rfoot -13.2791 -8.15176
rtoes 0.433844
lfemur -29.6791 0.550211 -13.995
ltibia 43.0869
lfoot -9.84226 8.94621
ltoes -11.1007
117
root 12.3888 17.4525 -9.21154 -0.602535 0.435472 -4.09641
lowerback 7.12444 0.999697 2.93554
upperback 0.209235 1.67834 2.72397
thorax -3.77912 0.804163 0.998201
lowerneck -16.3671 -4.67 -9.70476
upperneck 24.5081 -5.55894 6.2125
head 11.0974 -2.6894 3.08833
rclavicle -5.1684e-015 -1.59028e-014
rhumerus -24.8572 -4.77837 -82.33
rradius 35.2564
rwrist 3.23379
rhand -14.2675 11.8281
rfingers 7.12502
rthumb 11.8712 -17.8153
lclavicle -5.1684e-015 -1.59028e-014
lhumerus -32.878 13.5182 84.1006
lradius 24.2718
lwrist -11.2707
lhand -13.3743 28.0782
lfingers 7.12502
lthumb 12.7323 57.67
rfemur 2.37518 3.59595 31.4245
rtibia 18.0107
rfoot -13.1953 -8.21383
rtoes 0.567488
lfemur -29.8162 0.102407 -13.664
ltibia 40.8123
lfoot -10.0244 8.90056
ltoes -8.93254
118
root 12.4024 17.46 -9.07915 -0.39033 0.284235 -4.26283
lowerback 6.92037 1.11192 3.04979
upperback 0.136242 1.83135 2.76228
thorax -3.7377 0.878558 0.961884
lowerneck -16.0194 -4.62396 -9.51444
upperneck 24.2829 -5.52276 6.03735
head 10.93 -2.68063 2.99823
rclavicle -4.34841e-015 -3.45885e-014
rhumerus -24.6932 -4.46283 -82.3296
rradius 35.5175
rwrist 3.02522
rhand -14.1879 11.5946
rfingers 7.12502
rthumb 11.9479 -18.0444
lclavicle -4.34841e-015 -3.45885e-014
lhumerus -33.1768 13.5971 84.0092
lradius 24.16
lwrist -10.9818
lhand -13.0339 27.3992
lfingers 7.12502
lthumb 13.0605 56.9703
rfemur 3.04022 3.68964 31.5775
rtibia 17.3052
rfoot -13.1418 -8.1945
rtoes 0.999722
lfemur -29.9796 -0.522168 -13.16
ltibia 38.4479
lfoot -10.2923 8.88035
ltoes -7.40247
119
root 12.4195 17.4453 -8.93718 -0.300988 0.18298 -4.26841
lowerback 6.83304 1.20762 3.02813
upperback 0.172837 1.95175 2.78094
thorax -3.65154 0.93999 0.983628
lowerneck -16.8455 -4.20191 -9.26186
upperneck 24.1651 -4.94358 6.16948
head 10.9884 -2.36223 3.08097
rclavicle -1.95803e-014 -3.57812e-015
rhumerus -24.4627 -4.25948 -82.2675
rradius 35.8563
rwrist 2.75047
rhand -14.3662 11.9365
rfingers 7.12502
rthumb 11.7759 -17.7124
lclavicle -1.95803e-014 -3.57812e-015
lhumerus -33.0966 13.9124 83.9387
lradius 23.815
lwrist -11.1582
lhand -12.9686 26.5528
lfingers 7.12502
lthumb 13.1235 56.1198
rfemur 3.83153 3.49915 31.5234
rtibia 16.5691
rfoot -13.069 -8.0319
rtoes 0.0737946
lfemur -30.1663 -1.45312 -12.746
ltibia 36.0196
lfoot -10.2453 9.10563
ltoes -6.43502
120
root 12.437 17.4285 -8.79499 -0.20116 0.0965499 -4.36143
lowerback 6.76846 1.25482 3.13615
upperback 0.135588 2.02231 2.80727
thorax -3.65103 0.97319 0.944725
lowerneck -16.4253 -4.54763 -9.63561
upperneck 24.783 -5.35921 6.0371
head 11.1859 -2.61368 3.04616
rclavicle -3.97569e-015 -9.54166e-015
rhumerus -24.3997 -4.0534 -82.22
rradius 36.1316
rwrist 2.70342
rhand -14.53 12.2687
rfingers 7.12502
rthumb 11.6181 -17.3892
lclavicle -3.97569e-015 -9.54166e-015
lhumerus -32.966 15.1954 83.4214
lradius 22.9511
lwrist -12.5655
lhand -12.809 26.486
lfingers 7.12502
lthumb 13.2773 56.0431
rfemur 4.58873 3.50372 31.6042
rtibia 15.8921
rfoot -13.0516 -8.09389
rtoes -0.365718
lfemur -30.1897 -2.71748 -12.0887
ltibia 33.6069
lfoot -11.0507 9.52173
ltoes -5.64196
121
root 12.4523 17.4213 -8.65892 0.00656882 -0.011667 -4.39039
lowerback 6.7478 1.27511 3.19147
upperback -0.0577608 2.05892 2.75104
thorax -3.83596 0.986757 0.850568
lowerneck -16.2049 -4.15339 -9.06674
upperneck 24.1556 -4.92497 5.93002
head 10.8461 -2.37527 2.96911
rclavicle -1.64991e-014 -1.31198e-014
rhumerus -24.5869 -3.63524 -82.3422
rradius 36.4957
rwrist 2.39622
rhand -14.479 12.0871
rfingers 7.12502
rthumb 11.6672 -17.5681
lclavicle -1.64991e-014 -1.31198e-014
lhumerus -32.8742 17.5402 82.2099
lradius 21.4093
lwrist -15.0431
lhand -13.236 24.5801
lfingers 7.12502
lthumb 12.8656 54.1636
rfemur 5.12003 3.55161 31.6057
rtibia 15.4851
rfoot -13.2541 -8.17293
rtoes -1.21819
lfemur -30.0823 -3.66849 -11.5775
ltibia 31.2309
lfoot -12.421 9.7758
ltoes -8.3859
122
root 12.4667 17.4043 -8.51932 0.139552 -0.237532 -4.42305
lowerback 6.61268 1.38079 3.23235
upperback -0.0392802 2.19298 2.70477
thorax -3.73644 1.05336 0.770383
lowerneck -16.3772 -4.17113 -9.02109
upperneck 24.2841 -4.96976 5.99364
head 10.9314 -2.3817 2.97845
rclavicle 2.08972e-014 2.62396e-014
rhumerus -24.5093 -3.58278 -82.3692
rradius 36.8786
rwrist 2.3465
rhand -14.346 12.1108
rfingers 7.12502
rthumb 11.7954 -17.537
lclavicle 2.08972e-014 2.62396e-014
lhumerus -33.3764 15.8145 82.9016
lradius 22.7604
lwrist -13.2677
lhand -13.2036 24.724
lfingers 7.12502
lthumb 12.8969 54.3055
rfemur 5.6559 3.71013 31.6254
rtibia 15.2698
rfoot -13.6304 -8.3017
rtoes -1.35367
lfemur -30.0399 -4.2784 -11.211
ltibia 28.9754
lfoot -12.4622 10.2477
ltoes -10.6867
123
root 12.487 17.3835 -8.37942 0.309923 -0.36294 -4.59021
lowerback 6.32322 1.45551 3.41402
upperback 0.0598699 2.28777 2.75472
thorax -3.46525 1.10165 0.720727
lowerneck -16.6798 -4.5335 -9.58287
upperneck 24.9149 -5.38017 6.20004
head 11.2902 -2.59479 3.09403
rclavicle -9.19379e-015 -7.55382e-015
rhumerus -24.1153 -3.44148 -82.3014
rradius 36.9694
rwrist 2.24626
rhand -14.3081 12.3358
rfingers 7.12502
rthumb 11.8321 -17.31
lclavicle -9.19379e-015 -7.55382e-015
lhumerus -32.9592 16.064 82.9705
lradius 22.3314
lwrist -13.4194
lhand -12.9727 25.8121
lfingers 7.12502
lthumb 13.1195 55.3794
rfemur 6.17344 3.51507 31.7063
rtibia 14.8881
rfoot -13.8066 -8.13824
rtoes -1.92807
lfemur -30.3376 -4.86892 -10.7281
ltibia 27.1051
lfoot -11.2479 10.4284
ltoes -5.31931
124
root 12.5099 17.3506 -8.23561 0.5122 -0.441173 -4.71995
lowerback 6.09774 1.49871 3.55543
upperback 0.00864209 2.3472 2.8124
thorax -3.38801 1.13006 0.701805
lowerneck -17.2842 -4.29597 -9.24497
upperneck 24.5749 -5.02711 6.06022
head 11.2325 -2.40687 3.02752
rclavicle 1.33931e-014 1.19271e-014
rhumerus -23.8915 -3.26573 -82.2172
rradius 36.8778
rwrist 2.14573
rhand -14.5005 12.8331
rfingers 7.12502
rthumb 11.6465 -16.8232
lclavicle 1.33931e-014 1.19271e-014
lhumerus -32.4826 18.4202 82.029
lradius 20.6391
lwrist -15.9709
lhand -12.9626 25.2232
lfingers 7.12502
lthumb 13.1293 54.7899
rfemur 6.66692 3.38321 31.7647
rtibia 14.5728
rfoot -13.987 -8.07682
rtoes -1.44079
lfemur -30.8282 -5.91098 -10.0657
ltibia 25.4206
lfoot -11.9105 11.1601
ltoes -3.34649
